<?xml version="1.0" encoding="utf-8"?>
<!-- Generator: Adobe Illustrator 21.0.0, SVG Export Plug-In . SVG Version: 6.00 Build 0)  -->
<svg version="1.1" id="Layer_1" xmlns="http://www.w3.org/2000/svg" xmlns:xlink="http://www.w3.org/1999/xlink" x="0px" y="0px"
	 viewBox="0 0 16 16" style="enable-background:new 0 0 16 16;" xml:space="preserve">
<path d="M7.5,4v1h-1V4c0-1.5,1.7-3,3.5-3s3.5,1.5,3.5,3v4c0,1.4-1.7,3-3.5,3c-1.4,0-2.7-0.9-3.3-2h1.2c0.4,0.6,1.3,1,2.1,1
	c1.3,0,2.5-1,2.5-2V4c0-1-1.2-2-2.5-2S7.5,3,7.5,4z M10.5,13v-1h-1v1c0,1-1.2,2-2.5,2s-2.5-1-2.5-2V9c0-1,1.2-2,2.5-2
	c0.8,0,1.6,0.4,2.1,1h1.2C9.7,6.9,8.4,6,7,6C5.2,6,3.5,7.6,3.5,9v4c0,1.4,1.7,3,3.5,3S10.5,14.5,10.5,13z"/>
</svg>
